<?xml version="1.0" encoding="UTF-8" standalone="no"?>
<!DOCTYPE svg PUBLIC "-//W3C//DTD SVG 1.1//EN" "http://www.w3.org/Graphics/SVG/1.1/DTD/svg11.dtd">
<svg width="100%" height="100%" viewBox="0 0 380 214" version="1.1" xmlns="http://www.w3.org/2000/svg" xmlns:xlink="http://www.w3.org/1999/xlink" xml:space="preserve" xmlns:serif="http://www.serif.com/" style="fill-rule:evenodd;clip-rule:evenodd;stroke-linecap:round;stroke-linejoin:round;stroke-miterlimit:1.5;">
    <g transform="matrix(1,0,0,1,-33.2515,-40.3546)">
        <g transform="matrix(1.08929,0,0,0.952099,-193.32,-119.598)">
            <path d="M556,172.491C556,170.012 554.241,168 552.075,168L211.925,168C209.759,168 208,170.012 208,172.491L208,387.509C208,389.988 209.759,392 211.925,392L552.075,392C554.241,392 556,389.988 556,387.509L556,172.491Z" style="fill:none;"/>
        </g>
        <g transform="matrix(1,0,0,1,11.905,0)">
            <g transform="matrix(0.675775,0,0,0.519441,98.0916,-28.8399)">
                <path d="M257,164.75C257,158.265 252.953,153 247.968,153L70.032,153C65.047,153 61,158.265 61,164.75L61,188.25C61,194.735 65.047,200 70.032,200L247.968,200C252.953,200 257,194.735 257,188.25L257,164.75Z" style="fill:rgb(129,212,250);stroke:rgb(79,195,247);stroke-width:1.16px;"/>
            </g>
            <g transform="matrix(0.777057,0,0,0.777057,108.595,-13.4833)">
                <text x="102.242px" y="101.322px" style="font-family:'ArialMT', 'Arial', sans-serif;font-size:9.008px;fill:rgb(1,87,155);">constructor</text>
            </g>
            <g transform="matrix(4.7581e-17,0.0953395,-0.777057,5.83786e-18,286.336,54.2442)">
                <g transform="matrix(7.88003e-17,-1.28691,10.4888,6.42256e-16,-145.686,341.017)">
                    <path d="M187.343,41.533L184.193,45.733L181.043,41.533L187.343,41.533Z" style="fill:rgb(117,117,117);"/>
                    <path d="M184.193,35.098L184.193,42.373" style="fill:none;stroke:rgb(117,117,117);stroke-width:0.7px;"/>
                </g>
            </g>
            <g transform="matrix(4.7581e-17,0.0953395,-0.777057,5.83786e-18,286.336,90.1019)">
                <g transform="matrix(7.88003e-17,-1.28691,10.4888,6.42256e-16,-521.791,341.017)">
                    <path d="M187.343,77.391L184.193,81.591L181.043,77.391L187.343,77.391Z" style="fill:rgb(117,117,117);"/>
                    <path d="M184.193,70.956L184.193,78.231" style="fill:none;stroke:rgb(117,117,117);stroke-width:0.7px;"/>
                </g>
            </g>
            <g transform="matrix(4.7581e-17,0.0953395,-0.777057,5.83786e-18,286.336,125.96)">
                <g transform="matrix(7.88003e-17,-1.28691,10.4888,6.42256e-16,-897.896,341.017)">
                    <path d="M187.343,113.248L184.193,117.448L181.043,113.248L187.343,113.248Z" style="fill:rgb(117,117,117);"/>
                    <path d="M184.193,106.814L184.193,114.088" style="fill:none;stroke:rgb(117,117,117);stroke-width:0.7px;"/>
                </g>
            </g>
            <g transform="matrix(0.154212,-3.89618e-18,-2.1068e-16,0.777057,98.4417,49.767)">
                <g transform="matrix(6.48456,3.25137e-17,1.75813e-15,1.28691,-499.928,-12.1129)">
                    <path d="M124.402,87.059L128.602,90.209L124.402,93.359L124.402,87.059Z" style="fill:rgb(117,117,117);"/>
                    <path d="M128.425,98.185L117.967,98.195L117.967,90.209L125.242,90.209" style="fill:none;stroke:rgb(117,117,117);stroke-width:0.7px;"/>
                </g>
            </g>
            <g transform="matrix(0.675775,0,0,0.519441,108.776,42.8754)">
                <path d="M257,164.75C257,158.265 252.953,153 247.968,153L70.032,153C65.047,153 61,158.265 61,164.75L61,188.25C61,194.735 65.047,200 70.032,200L247.968,200C252.953,200 257,194.735 257,188.25L257,164.75Z" style="fill:rgb(244,143,177);stroke:rgb(240,98,146);stroke-width:1.16px;"/>
            </g>
            <g transform="matrix(0.777057,0,0,0.777057,113.602,57.6355)">
                <text x="80.089px" y="101.322px" style="font-family:'ArialMT', 'Arial', sans-serif;font-size:9.008px;fill:rgb(136,14,79);">attributeChangedCallback</text>
            </g>
            <g transform="matrix(0.154212,-3.89618e-18,-2.1068e-16,0.777057,98.4417,85.6247)">
                <g transform="matrix(6.48456,3.25137e-17,1.75813e-15,1.28691,-499.928,-58.2584)">
                    <path d="M124.402,122.917L128.602,126.067L124.402,129.217L124.402,122.917Z" style="fill:rgb(117,117,117);"/>
                    <path d="M128.425,134.042L117.967,134.053L117.967,126.067L125.242,126.067" style="fill:none;stroke:rgb(117,117,117);stroke-width:0.7px;"/>
                </g>
            </g>
            <g transform="matrix(0.675775,0,0,0.519441,108.776,78.7331)">
                <path d="M257,164.75C257,158.265 252.953,153 247.968,153L70.032,153C65.047,153 61,158.265 61,164.75L61,188.25C61,194.735 65.047,200 70.032,200L247.968,200C252.953,200 257,194.735 257,188.25L257,164.75Z" style="fill:rgb(244,143,177);stroke:rgb(240,98,146);stroke-width:1.16px;"/>
            </g>
            <g transform="matrix(0.777057,0,0,0.777057,113.602,93.5342)">
                <text x="98.365px" y="101.322px" style="font-family:'ArialMT', 'Arial', sans-serif;font-size:9.008px;fill:rgb(136,14,79);">adoptedCallback</text>
            </g>
            <g transform="matrix(4.7581e-17,0.0953395,-0.777057,5.83786e-18,286.336,161.817)">
                <g transform="matrix(7.88003e-17,-1.28691,10.4888,6.42256e-16,-1274,341.017)">
                    <path d="M187.343,149.106L184.193,153.306L181.043,149.106L187.343,149.106Z" style="fill:rgb(117,117,117);"/>
                    <path d="M184.193,142.671L184.193,149.946" style="fill:none;stroke:rgb(117,117,117);stroke-width:0.7px;"/>
                </g>
            </g>
            <g transform="matrix(0.675775,0,0,0.519441,98.0916,7.01776)">
                <path d="M257,164.75C257,158.265 252.953,153 247.968,153L70.032,153C65.047,153 61,158.265 61,164.75L61,188.25C61,194.735 65.047,200 70.032,200L247.968,200C252.953,200 257,194.735 257,188.25L257,164.75Z" style="fill:rgb(129,212,250);stroke:rgb(79,195,247);stroke-width:1.16px;"/>
            </g>
            <g transform="matrix(0.777057,0,0,0.777057,102.907,22.4717)">
                <text x="93.861px" y="101.322px" style="font-family:'ArialMT', 'Arial', sans-serif;font-size:9.008px;fill:rgb(1,87,155);">connectedCallback</text>
            </g>
            <g transform="matrix(0.675775,0,0,0.519441,98.0916,114.591)">
                <path d="M257,164.75C257,158.265 252.953,153 247.968,153L70.032,153C65.047,153 61,158.265 61,164.75L61,188.25C61,194.735 65.047,200 70.032,200L247.968,200C252.953,200 257,194.735 257,188.25L257,164.75Z" style="fill:rgb(129,212,250);stroke:rgb(79,195,247);stroke-width:1.16px;"/>
            </g>
            <g transform="matrix(0.777057,0,0,0.777057,102.924,130.045)">
                <text x="88.103px" y="101.322px" style="font-family:'ArialMT', 'Arial', sans-serif;font-size:9.008px;fill:rgb(1,87,155);">disconnectedCallback</text>
            </g>
            <g transform="matrix(0.777057,0,0,0.777057,-92.6398,-17.1458)">
                <text x="363.97px" y="98.316px" style="font-family:'Helvetica';font-size:6.435px;fill:rgb(66,66,66);">initialize class</text>
            </g>
            <g transform="matrix(0.777057,0,0,0.777057,-97.6349,18.6062)">
                <text x="363.97px" y="98.316px" style="font-family:'Helvetica';font-size:6.435px;fill:rgb(66,66,66);">added to the DOM</text>
            </g>
            <g transform="matrix(0.777057,0,0,0.777057,-85.8575,53.5424)">
                <text x="363.97px" y="98.316px" style="font-family:'Helvetica';font-size:6.435px;fill:rgb(66,66,66);">attribute changed</text>
            </g>
            <g transform="matrix(0.777057,0,0,0.777057,-90.5584,89.3682)">
                <text x="363.97px" y="98.316px" style="font-family:'Helvetica';font-size:6.435px;fill:rgb(66,66,66);">moved to a new page</text>
            </g>
            <g transform="matrix(0.777057,0,0,0.777057,-99.2218,125.775)">
                <text x="363.97px" y="98.316px" style="font-family:'Helvetica';font-size:6.435px;fill:rgb(66,66,66);">removed from DOM</text>
            </g>
        </g>
        <g transform="matrix(1,0,0,1,-0.62363,0)">
            <g transform="matrix(1,0,0,1,-2.85042,0)">
                <path d="M313.209,232.281C313.209,229.612 311.042,227.445 308.373,227.445L144.15,227.445C141.481,227.445 139.314,229.612 139.314,232.281L139.314,241.952C139.314,244.621 141.481,246.788 144.15,246.788L308.373,246.788C311.042,246.788 313.209,244.621 313.209,241.952L313.209,232.281Z" style="fill:white;stroke:rgb(224,224,224);stroke-width:0.7px;"/>
            </g>
            <g transform="matrix(1,0,0,1,0.62363,0.482768)">
                <g>
                    <g transform="matrix(0.0651099,0,0,0.285572,135.342,186.23)">
                        <path d="M257,164.172C257,158.006 235.044,153 208,153L110,153C82.956,153 61,158.006 61,164.172L61,188.828C61,194.994 82.956,200 110,200L208,200C235.044,200 257,194.994 257,188.828L257,164.172Z" style="fill:rgb(129,212,250);stroke:rgb(79,195,247);stroke-width:3.38px;"/>
                    </g>
                    <g transform="matrix(0.777057,0,0,0.777057,-125.535,162.2)">
                        <text x="363.97px" y="98.316px" style="font-family:'Helvetica';font-size:8px;fill:rgb(33,33,33);">called only once</text>
                    </g>
                </g>
                <g>
                    <g transform="matrix(0.0651099,0,0,0.285572,203.024,186.23)">
                        <path d="M257,164.172C257,158.006 235.044,153 208,153L110,153C82.956,153 61,158.006 61,164.172L61,188.828C61,194.994 82.956,200 110,200L208,200C235.044,200 257,194.994 257,188.828L257,164.172Z" style="fill:rgb(244,143,177);stroke:rgb(240,98,146);stroke-width:3.38px;"/>
                    </g>
                    <g transform="matrix(0.777057,0,0,0.777057,-57.8525,162.415)">
                        <text x="363.97px" y="98.316px" style="font-family:'Helvetica';font-size:8px;fill:rgb(33,33,33);">can be called more than once</text>
                    </g>
                </g>
            </g>
        </g>
    </g>
</svg>
