<?xml version="1.0" encoding="UTF-8" standalone="no"?>
<!DOCTYPE svg PUBLIC "-//W3C//DTD SVG 1.1//EN" "http://www.w3.org/Graphics/SVG/1.1/DTD/svg11.dtd">
<svg width="100%" height="100%" viewBox="0 0 439 229" version="1.1" xmlns="http://www.w3.org/2000/svg" xmlns:xlink="http://www.w3.org/1999/xlink" xml:space="preserve" xmlns:serif="http://www.serif.com/" style="fill-rule:evenodd;clip-rule:evenodd;stroke-linecap:round;stroke-linejoin:round;stroke-miterlimit:1.5;">
    <g transform="matrix(1,0,0,1,-3.61407,-32.5924)">
        <g transform="matrix(1.25962,0,0,1.0214,-258.386,-139.003)">
            <path d="M556,172.491C556,170.012 554.368,168 552.359,168L211.641,168C209.632,168 208,170.012 208,172.491L208,387.509C208,389.988 209.632,392 211.641,392L552.359,392C554.368,392 556,389.988 556,387.509L556,172.491Z" style="fill:none;"/>
        </g>
        <g transform="matrix(1,0,0,1,-2.84217e-14,-1.72171)">
            <g transform="matrix(1,0,0,1,11.905,0)">
                <g transform="matrix(0.675775,0,0,0.519441,98.0916,-28.8399)">
                    <path d="M257,164.75C257,158.265 252.953,153 247.968,153L70.032,153C65.047,153 61,158.265 61,164.75L61,188.25C61,194.735 65.047,200 70.032,200L247.968,200C252.953,200 257,194.735 257,188.25L257,164.75Z" style="fill:rgb(129,212,250);stroke:rgb(79,195,247);stroke-width:1.16px;"/>
                </g>
                <g transform="matrix(1,0,0,1,0.0010574,2.34326)">
                    <g transform="matrix(0.777057,0,0,0.777057,188.043,65.2497)">
                        <text x="0px" y="0px" style="font-family:'ArialMT', 'Arial', sans-serif;font-size:9.008px;fill:rgb(1,87,155);">constructor</text>
                    </g>
                    <g transform="matrix(0.777057,0,0,0.777057,190.186,59.2513)">
                        <text x="0px" y="0px" style="font-family:'Helvetica';font-size:6.435px;fill:rgb(66,66,66);">initialize class</text>
                    </g>
                </g>
                <g transform="matrix(1,-1.92108e-23,-1.92779e-21,0.999997,-8.29138,34.314)">
                    <g>
                        <path d="M216.981,47.574L213.831,51.774L210.681,47.574L216.981,47.574Z" style="fill:rgb(117,117,117);"/>
                        <path d="M213.831,41.139L213.831,48.414" style="fill:none;stroke:rgb(117,117,117);stroke-width:0.7px;"/>
                    </g>
                </g>
                <g transform="matrix(1,-1.92108e-23,-1.92779e-21,0.999997,-8.29138,34.3141)">
                    <g>
                        <path d="M216.981,83.431L213.831,87.631L210.681,83.431L216.981,83.431Z" style="fill:rgb(117,117,117);"/>
                        <path d="M213.831,76.996L213.831,84.271" style="fill:none;stroke:rgb(117,117,117);stroke-width:0.7px;"/>
                    </g>
                </g>
                <g transform="matrix(1,-1.92108e-23,-1.92779e-21,0.999997,-8.29138,34.3145)">
                    <g>
                        <path d="M216.981,119.289L213.831,123.489L210.681,119.289L216.981,119.289Z" style="fill:rgb(117,117,117);"/>
                        <path d="M213.831,112.854L213.831,120.129" style="fill:none;stroke:rgb(117,117,117);stroke-width:0.7px;"/>
                    </g>
                </g>
                <g transform="matrix(0.999997,-1.47999e-23,-1.45524e-21,1,-8.29058,34.3141)">
                    <g>
                        <path d="M154.04,93.099L158.24,96.249L154.04,99.399L154.04,93.099Z" style="fill:rgb(117,117,117);"/>
                        <path d="M158.063,104.225L147.605,104.236L147.605,96.249L154.88,96.249" style="fill:none;stroke:rgb(117,117,117);stroke-width:0.7px;"/>
                    </g>
                </g>
                <g transform="matrix(0.675775,0,0,0.519441,108.776,42.8754)">
                    <path d="M257,164.75C257,158.265 252.953,153 247.968,153L70.032,153C65.047,153 61,158.265 61,164.75L61,188.25C61,194.735 65.047,200 70.032,200L247.968,200C252.953,200 257,194.735 257,188.25L257,164.75Z" style="fill:rgb(244,143,177);stroke:rgb(240,98,146);stroke-width:1.16px;"/>
                </g>
                <g transform="matrix(1,0,0,1,0.00164017,2.46564)">
                    <g transform="matrix(0.777057,0,0,0.777057,175.836,136.368)">
                        <text x="0px" y="0px" style="font-family:'ArialMT', 'Arial', sans-serif;font-size:9.008px;fill:rgb(136,14,79);">attributeChangedCallback</text>
                    </g>
                    <g transform="matrix(0.777057,0,0,0.777057,196.968,129.94)">
                        <text x="0px" y="0px" style="font-family:'Helvetica';font-size:6.435px;fill:rgb(66,66,66);">attribute changed</text>
                    </g>
                </g>
                <g transform="matrix(0.999997,-1.47999e-23,-1.45524e-21,1,-8.29058,34.3141)">
                    <g>
                        <path d="M154.04,128.957L158.24,132.107L154.04,135.257L154.04,128.957Z" style="fill:rgb(117,117,117);"/>
                        <path d="M158.063,140.083L147.605,140.093L147.605,132.107L154.88,132.107" style="fill:none;stroke:rgb(117,117,117);stroke-width:0.7px;"/>
                    </g>
                </g>
                <g transform="matrix(0.675775,0,0,0.519441,108.776,78.7331)">
                    <path d="M257,164.75C257,158.265 252.953,153 247.968,153L70.032,153C65.047,153 61,158.265 61,164.75L61,188.25C61,194.735 65.047,200 70.032,200L247.968,200C252.953,200 257,194.735 257,188.25L257,164.75Z" style="fill:rgb(244,143,177);stroke:rgb(240,98,146);stroke-width:1.16px;"/>
                </g>
                <g transform="matrix(1,0,0,1,0.00125771,2.5021)">
                    <g transform="matrix(0.777057,0,0,0.777057,190.037,172.267)">
                        <text x="0px" y="0px" style="font-family:'ArialMT', 'Arial', sans-serif;font-size:9.008px;fill:rgb(136,14,79);">adoptedCallback</text>
                    </g>
                    <g transform="matrix(0.777057,0,0,0.777057,192.267,165.765)">
                        <text x="0px" y="0px" style="font-family:'Helvetica';font-size:6.435px;fill:rgb(66,66,66);">moved to a new page</text>
                    </g>
                </g>
                <g transform="matrix(1,-1.92108e-23,-1.92779e-21,0.999997,-8.29138,34.3138)">
                    <g>
                        <path d="M216.981,155.146L213.831,159.346L210.681,155.146L216.981,155.146Z" style="fill:rgb(117,117,117);"/>
                        <path d="M213.831,148.712L213.831,155.986" style="fill:none;stroke:rgb(117,117,117);stroke-width:0.7px;"/>
                    </g>
                </g>
                <g transform="matrix(0.675775,0,0,0.519441,98.0916,7.01776)">
                    <path d="M257,164.75C257,158.265 252.953,153 247.968,153L70.032,153C65.047,153 61,158.265 61,164.75L61,188.25C61,194.735 65.047,200 70.032,200L247.968,200C252.953,200 257,194.735 257,188.25L257,164.75Z" style="fill:rgb(129,212,250);stroke:rgb(79,195,247);stroke-width:1.16px;"/>
                </g>
                <g transform="matrix(1,0,0,1,0.0016042,2.39455)">
                    <g transform="matrix(0.777057,0,0,0.777057,175.842,101.205)">
                        <text x="0px" y="0px" style="font-family:'ArialMT', 'Arial', sans-serif;font-size:9.008px;fill:rgb(1,87,155);">connectedCallback</text>
                    </g>
                    <g transform="matrix(0.777057,0,0,0.777057,185.191,95.0033)">
                        <text x="0px" y="0px" style="font-family:'Helvetica';font-size:6.435px;fill:rgb(66,66,66);">added to the DOM</text>
                    </g>
                </g>
                <g transform="matrix(0.675775,0,0,0.519441,98.0916,114.591)">
                    <path d="M257,164.75C257,158.265 252.953,153 247.968,153L70.032,153C65.047,153 61,158.265 61,164.75L61,188.25C61,194.735 65.047,200 70.032,200L247.968,200C252.953,200 257,194.735 257,188.25L257,164.75Z" style="fill:rgb(129,212,250);stroke:rgb(79,195,247);stroke-width:1.16px;"/>
                </g>
                <g transform="matrix(1,0,0,1,0.00203942,2.59674)">
                    <g transform="matrix(0.777057,0,0,0.777057,171.385,208.778)">
                        <text x="0px" y="0px" style="font-family:'ArialMT', 'Arial', sans-serif;font-size:9.008px;fill:rgb(1,87,155);">disconnectedCallback</text>
                    </g>
                    <g transform="matrix(0.777057,0,0,0.777057,183.604,202.172)">
                        <text x="0px" y="0px" style="font-family:'Helvetica';font-size:6.435px;fill:rgb(66,66,66);">removed from DOM</text>
                    </g>
                </g>
            </g>
            <g transform="matrix(1,0,0,1,-0.62363,0)">
                <g transform="matrix(1,0,0,1,-2.85042,0)">
                    <path d="M313.209,232.281C313.209,229.612 311.042,227.445 308.373,227.445L144.15,227.445C141.481,227.445 139.314,229.612 139.314,232.281L139.314,241.952C139.314,244.621 141.481,246.788 144.15,246.788L308.373,246.788C311.042,246.788 313.209,244.621 313.209,241.952L313.209,232.281Z" style="fill:white;stroke:rgb(224,224,224);stroke-width:0.7px;"/>
                </g>
                <g>
                    <g transform="matrix(0.0651099,0,0,0.285572,135.966,186.713)">
                        <path d="M257,164.172C257,158.006 235.044,153 208,153L110,153C82.956,153 61,158.006 61,164.172L61,188.828C61,194.994 82.956,200 110,200L208,200C235.044,200 257,194.994 257,188.828L257,164.172Z" style="fill:rgb(129,212,250);stroke:rgb(79,195,247);stroke-width:3.38px;"/>
                    </g>
                    <g transform="matrix(0.777057,0,0,0.777057,157.914,238.687)">
                        <text x="0px" y="0px" style="font-family:'Helvetica';font-size:8px;fill:rgb(33,33,33);">called only once</text>
                    </g>
                    <g transform="matrix(0.0651099,0,0,0.285572,203.648,186.713)">
                        <path d="M257,164.172C257,158.006 235.044,153 208,153L110,153C82.956,153 61,158.006 61,164.172L61,188.828C61,194.994 82.956,200 110,200L208,200C235.044,200 257,194.994 257,188.828L257,164.172Z" style="fill:rgb(244,143,177);stroke:rgb(240,98,146);stroke-width:3.38px;"/>
                    </g>
                    <g transform="matrix(0.777057,0,0,0.777057,225.597,239.294)">
                        <text x="0px" y="0px" style="font-family:'Helvetica';font-size:8px;fill:rgb(33,33,33);">can be called more than once</text>
                    </g>
                </g>
            </g>
        </g>
    </g>
</svg>
